<svg xmlns="http://www.w3.org/2000/svg" viewBox="0 0 24 24"><path d="M12,2A10,10 0 0,0 2,12A10,10 0 0,0 12,22A10,10 0 0,0 22,12A10,10 0 0,0 12,2M12,3C13.76,3 15.4,3.53 16.78,4.41L16.5,5H13L12,5L10.28,4.16L10.63,3.13C11.08,3.05 11.53,3 12,3M9.53,3.38L9.19,4.41L6.63,5.69L5.38,5.94C6.5,4.73 7.92,3.84 9.53,3.38M13,6H16L18.69,9.59L17.44,12.16L14.81,12.78L11.53,8.94L13,6M6.16,6.66L7,10L5.78,13.06L3.22,13.94C3.08,13.31 3,12.67 3,12C3,10.1 3.59,8.36 4.59,6.91L6.16,6.66M20.56,9.22C20.85,10.09 21,11.03 21,12C21,13.44 20.63,14.79 20,16H19L18.16,15.28L18.31,12.44L19.75,10.56L20.56,9.22M8,10.5L10.34,13.34L8.16,15.28L6.22,15.28L4,13.06L6.91,10.5H8M12,17.5L12.97,16.97L14.28,16.97L15.84,18.5L13.91,19.94L11.97,19.28L11.18,17.5H12M15,18.92L18.05,17.5L20.19,15.63C19.33,17.67 17.47,19.31 15.23,19.86L15,18.92Z" /></svg>